<?xml version="1.0" encoding="utf-8"?>
<!-- Generator: Adobe Illustrator 23.0.0, SVG Export Plug-In . SVG Version: 6.00 Build 0)  -->
<svg version="1.1" id="图层_2" xmlns="http://www.w3.org/2000/svg" xmlns:xlink="http://www.w3.org/1999/xlink" x="0px" y="0px"
	 viewBox="0 0 1311 242" style="enable-background:new 0 0 1311 242;" xml:space="preserve">
<style type="text/css">
	.st0{fill:#0066A8;}
	.st1{fill:#E03E46;}
	.st2{fill:#FFFFFF;}
</style>
<g>
	<path class="st0" d="M286.9,202.2l16.5-113.5c0.1-1.5,0.8-2.3,2.1-2.3h10.8c0.9,0,1.4,0.8,1.4,2.3l-16.5,113.5
		c-0.1,1.5-0.8,2.3-2,2.3h-10.8C287.3,204.5,286.9,203.8,286.9,202.2z M304.7,62.4l3-20.2c0.1-1.5,0.8-2.3,2.1-2.4h15.7
		c0.9,0,1.4,0.8,1.4,2.4l-2.9,20.2c-0.1,1.5-0.8,2.3-2.1,2.3h-15.7C305.2,64.7,304.7,64,304.7,62.4z"/>
	<path class="st0" d="M338.2,56.4l2.1-14.1c0.1-1.5,0.8-2.3,2.1-2.4h84.7c0.9,0,1.4,0.8,1.4,2.4l-2.1,14.1c-0.1,1.5-0.8,2.3-2.1,2.3
		h-34.7l-20.9,143.6c-0.1,1.5-0.8,2.3-2.1,2.3h-11.9c-0.9,0-1.4-0.8-1.4-2.3l20.9-143.6h-34.7C338.7,58.6,338.2,57.9,338.2,56.4z"/>
	<path class="st0" d="M424.5,202.2l16.3-113.5c0.3-1.5,1-2.3,2.1-2.3h10.8c0.9,0,1.4,0.8,1.4,2.3l-1.7,11.7
		c7.6-10.9,16.9-16.3,27.9-16.4c4.9,0,9.5,1.2,13.7,3.6c1.4,0.8,2.1,1.7,2.1,2.9c0,0.3-0.1,0.8-0.2,1.6l-2.1,14.1
		c-0.2,1.8-0.9,2.6-2.1,2.5c-0.6,0-1.3-0.3-2.1-0.9c-5.2-4.2-10.4-6.3-15.3-6.3c-6.3,0-12.1,3.5-17.2,10.5s-8.5,15.7-10.1,26
		l-9.2,64.2c-0.3,1.5-1,2.3-2,2.3h-10.8C424.9,204.5,424.5,203.8,424.5,202.2z"/>
	<path class="st0" d="M504.7,175.9c0-2.4,0.4-6.3,1.1-11.8l10.9-75.4c0.1-1.5,0.8-2.3,2.1-2.3h10.9c0.9,0,1.4,0.8,1.4,2.3
		l-10.4,72.4c-0.5,3.6-0.7,6.6-0.8,8.9c0,12.8,5.3,19.3,16,19.3c6.9,0,13.4-3.8,19.3-11.3c5.9-7.5,9.9-18,11.8-31.4l8.4-58
		c0.3-1.5,1-2.3,2-2.3h10.8c0.9,0,1.4,0.8,1.4,2.3l-16.3,113.5c-0.3,1.5-1,2.3-2.1,2.3h-10.8c-0.9,0-1.4-0.8-1.4-2.3l1.9-13.4
		c-9.2,12.1-19.2,18.1-30,18c-8.3,0-14.7-2.7-19.2-8C507,193.5,504.7,185.9,504.7,175.9z"/>
	<path class="st0" d="M602.7,171.8v-3.2c0-1.5,0.6-2.3,1.7-2.4h11.2c0.9,0,1.4,0.8,1.5,2.4c0,13.9,6.4,20.8,19.3,20.8
		c5.8,0,11.1-1.5,15.8-4.6c4.7-3.1,7.1-8,7.1-14.9c0-4.7-1.8-8.5-5.4-11.5c-3.6-3-9.3-5.4-17.2-7.1c-8.2-1.9-14.5-5.4-19.1-10.6
		c-4.6-5.2-6.8-11.6-6.8-19.2c0-12.5,3.5-21.9,10.5-28.1c7-6.2,15.8-9.3,26.4-9.3c9.7,0,17.3,3.2,22.7,9.5
		c5.4,6.4,8.2,14.5,8.2,24.3c0,1.5-0.7,2.4-2.1,2.4h-9.8c-0.8,0-1.3-0.8-1.4-2.4c-0.3-5.7-2.3-9.8-5.9-12.5c-3.6-2.6-8.1-4-13.3-4
		c-5.7,0-10.6,1.4-14.7,4.1c-4.1,2.8-6.2,7.3-6.2,13.5c0,4.8,1.6,8.5,4.8,10.9c3.2,2.4,8.9,4.7,17.1,6.9c8.4,2.2,15,5.6,19.9,10
		c4.9,4.5,7.4,11,7.4,19.6c0,13.4-3.8,23.4-11.3,30.2c-7.5,6.8-17.1,10.1-28.6,10.1c-9.6,0-17.3-3.3-23.1-9.8
		C605.6,190.6,602.7,182.1,602.7,171.8z"/>
	<path class="st0" d="M693.3,101.6l1.8-12.8c0.3-1.5,1.1-2.3,2.1-2.3h14.9l4.9-33.9c0.1-1.4,0.8-2.2,2.1-2.2h10.7
		c0.9,0,1.4,0.7,1.4,2.1l-4.9,33.9h29.1c0.9,0,1.4,0.8,1.4,2.3l-1.8,12.8c-0.3,1.5-1,2.3-2.1,2.3h-29.1l-9.4,65.3
		c-0.2,2.4-0.4,4.6-0.4,6.8c0,8.9,3.8,13.4,11.4,13.4c5.6,0,11.3-1.3,17.2-4c0.3-0.2,0.7-0.2,1.2-0.2c0.7,0,1.1,0.7,1.1,2.1
		l-1.8,11.7c-0.3,2.2-1,3.6-1.9,4c-5.6,2.7-12.3,4-20.2,3.9c-7.1,0-12.6-2.2-16.4-6.6c-3.8-4.4-5.7-10.8-5.7-19.1
		c0-2.8,0.5-7.3,1.4-13.6l9.2-63.6h-14.9C693.8,103.9,693.3,103.1,693.3,101.6z"/>
	<path class="st1" d="M807.6,138.6c0-18.7,2.6-35.6,7.9-50.8c5.2-15.2,13.1-27.4,23.7-36.6c10.5-9.2,22.7-13.8,36.6-13.8
		c13.2,0,23.9,5.1,32.2,15.4c8.3,10.3,12.4,23.3,12.4,39.2v2.6c0,1.5-0.8,2.3-2.3,2.3h-10.9c-1,0-1.6-0.8-1.7-2.3
		c-0.8-12.6-3.7-22.1-8.8-28.6c-5-6.5-12.8-9.8-23.1-9.8c-14.8,0-26.9,7.9-36.2,23.6s-13.9,34.3-13.9,55.6c0,16.8,3,29.7,8.9,38.8
		c6,9.1,13.7,13.7,23.3,13.7c10.4,0,18.7-3,24.9-9c6.2-6,11.7-15.8,16.5-29.2c0.5-1.5,1.3-2.3,2.5-2.4H911c1,0,1.6,0.8,1.6,2.3
		c-4.7,18.6-12.1,32.7-22.1,42.5c-10.1,9.8-22.1,14.7-36.2,14.7c-13.3,0-24.4-6.2-33.3-18.7C812.1,175.7,807.6,159.2,807.6,138.6z"
		/>
	<path class="st1" d="M927.1,202.2l23.4-160c0.1-1.5,0.8-2.3,2-2.4h10.8c0.9,0,1.4,0.8,1.4,2.4l-8.8,60c10-12.1,20.7-18.1,32.2-18.1
		c8.1,0,14.4,2.8,19,8.3c4.6,5.5,6.9,13.1,6.9,22.6c0,3.8-0.2,7-0.5,9.9l-11.6,77.4c-0.1,1.5-0.8,2.3-2.1,2.3h-10.8
		c-0.9,0-1.4-0.8-1.4-2.3l10.4-69c0.5-4.1,0.7-7.6,0.7-10.7c0-6.6-1.4-11.8-4.3-15.5c-2.9-3.7-6.9-5.6-12-5.6c-6.9,0-13.6,4-20,11.9
		c-6.4,7.9-10.5,18.1-12.4,30.5l-8.5,58.4c-0.1,1.5-0.8,2.3-2,2.3h-10.8C927.6,204.5,927.1,203.8,927.1,202.2z"/>
	<path class="st1" d="M1029.8,154.4c0-19,4.3-35.4,13-49.4c8.7-14,20.6-20.9,35.8-20.9c11.3,0,20.1,5,26.2,15l1.5-10.3
		c0.1-1.5,0.8-2.3,2.1-2.3h10.8c0.9,0,1.4,0.8,1.4,2.3l-16.2,113.5c-0.3,1.6-1,2.3-2.1,2.3h-10.8c-0.9,0-1.4-0.8-1.4-2.3l1.4-9.5
		c-4.2,5.2-8.3,8.9-12.4,11c-4,2.1-9.2,3.1-15.4,3.1c-10.3,0-18.5-4.9-24.6-14.6C1032.8,182.6,1029.8,170,1029.8,154.4z
		 M1044.8,154.4c0,10.9,1.9,19.5,5.8,25.7c3.9,6.2,9.2,9.3,16.1,9.3c9.9,0,18.1-5.5,24.4-16.6c6.3-11.1,9.5-24.3,9.5-39.6
		c0-9.9-2-17.6-6.1-23.2c-4.1-5.6-9.7-8.4-16.9-8.4c-9.9,0-17.9,5.3-23.8,15.8C1047.8,127.8,1044.8,140.2,1044.8,154.4z"/>
	<path class="st1" d="M1136.1,202.2l16.5-113.5c0.1-1.5,0.8-2.3,2.1-2.3h10.8c0.9,0,1.4,0.8,1.4,2.3l-16.5,113.5
		c-0.1,1.5-0.8,2.3-2,2.3h-10.8C1136.6,204.5,1136.1,203.8,1136.1,202.2z M1154,62.4l3-20.2c0.1-1.5,0.8-2.3,2.1-2.4h15.7
		c0.9,0,1.4,0.8,1.4,2.4l-2.9,20.2c-0.1,1.5-0.8,2.3-2.1,2.3h-15.7C1154.5,64.7,1154,64,1154,62.4z"/>
	<path class="st1" d="M1183,202.2l16.3-113.5c0.3-1.5,1-2.3,2-2.3h10.8c0.9,0,1.4,0.8,1.4,2.3l-1.9,13.4
		C1221,90.1,1231,84,1241.8,84c8.3,0,14.7,2.7,19.3,8c4.6,5.4,6.9,13,6.9,22.9c0,2.4-0.4,6.4-1.1,11.9l-10.9,75.3
		c-0.1,1.5-0.8,2.3-2,2.3H1243c-0.9,0-1.4-0.8-1.4-2.3l10.5-72.4c0.5-3.6,0.7-6.6,0.8-9c0-12.9-5.4-19.3-16.1-19.3
		c-6.9,0-13.4,3.8-19.4,11.3c-6,7.5-9.9,18-11.7,31.4l-8.4,58c-0.3,1.5-1,2.3-2,2.3h-10.8C1183.5,204.5,1183,203.8,1183,202.2z"/>
</g>
<path class="st2" d="M28,242c-17.5,0-27-9-27-24.2V26.7C1,9.4,10.5,0,28,0h191c17.5,0,27,9.4,27,26.7v190.8"/>
<path class="st2" d="M246,217.5c0,15.1-9.5,24.5-27,24.5"/>
<path class="st1" d="M28,232.7h191c9.6,0,17.5-5.6,17.5-15.1v-13h-226v13C10.5,227.1,18.4,232.7,28,232.7"/>
<g>
	<polygon class="st0" points="91.9,174.7 91.9,194.8 100.6,194.8 94.9,174.7 	"/>
	<path class="st0" d="M100.5,156.6c0-4.4-1.8-7.7-5.6-7.7h-3v15.3h3C98.7,164.3,100.5,161,100.5,156.6z"/>
	<path class="st0" d="M219,9.4H28c-9.6,0-17.5,7.7-17.5,17.3v168.1h15.6v-56.2h11.8v56.2H39h13.6v-56.8H42.5v-11.3h33v11.3H65.3
		v56.8h14.8v-56.2h16.3c10.6,0,16.2,7.9,16.2,18c0,8.8-3.8,13.7-7.2,15.5l8,22.7h17.4c-6.2-2.5-10.3-8.9-10.3-20v-36.2h11.8v39
		c0,5.4,1.8,8,5.3,8c3.5,0,5.3-2.7,5.3-8v-39h11.9v36.1c0,11.2-4,17.6-10.3,20.1h24.1c-2.8-1-5.2-2.5-7.6-4.8l4.7-9.2
		c2.6,3.2,6.3,5,9.8,5c3.1,0,5.5-2.2,5.5-5.8c0-9.1-18.1-10.1-18.1-27.2c0-8.5,5.9-15.4,16.3-15.4c5.4,0,9.6,1.5,13.4,4.7l-4.3,9.1
		c-2.6-2.6-5.2-3.6-8.3-3.6c-2.7,0-4.9,2-4.9,5.2c0,8.3,18,9.6,18,27c0,7.1-3.6,12.7-9.7,15h8.3h13V149h-8.2v-10.4h28.2V149h-8.2
		v45.8h6.4h13.5V26.7C236.5,17.1,228.7,9.4,219,9.4z"/>
</g>
</svg>
