<?xml version="1.0" encoding="utf-8"?>
<!-- Generator: Adobe Illustrator 23.0.0, SVG Export Plug-In . SVG Version: 6.00 Build 0)  -->
<svg version="1.1" id="图层_2" xmlns="http://www.w3.org/2000/svg" xmlns:xlink="http://www.w3.org/1999/xlink" x="0px" y="0px"
	 viewBox="0 0 34 34" style="enable-background:new 0 0 34 34;" xml:space="preserve">
<style type="text/css">
	.st0{fill:#FFFFFF;}
	.st1{fill:#E03E46;}
	.st2{fill:#0066A8;}
</style>
<path class="st0" d="M34,30.6c0,2.1-1.3,3.5-3.7,3.5H3.7c-2.4,0-3.7-1.3-3.7-3.4V3.8C0,1.3,1.3,0,3.7,0h26.5C32.7,0,34,1.3,34,3.8
	V30.6"/>
<path class="st1" d="M3.7,32.8h26.5c1.3,0,2.4-0.8,2.4-2.1v-1.8H1.3v1.8C1.3,32,2.4,32.8,3.7,32.8"/>
<g>
	<polygon class="st2" points="12.6,24.6 12.6,27.4 13.8,27.4 13,24.6 	"/>
	<path class="st2" d="M13.8,22.1c0-0.6-0.3-1.1-0.8-1.1h-0.4v2.2H13C13.6,23.1,13.8,22.7,13.8,22.1z"/>
	<path class="st2" d="M30.3,1.3H3.7c-1.3,0-2.4,1.1-2.4,2.4v23.7h2.2v-7.9h1.6v7.9h0.2h1.9v-8H5.8v-1.6h4.6v1.6H8.9v8H11v-7.9h2.3
		c1.5,0,2.2,1.1,2.2,2.5c0,1.2-0.5,1.9-1,2.2l1.1,3.2H18c-0.9-0.4-1.4-1.3-1.4-2.8v-5.1h1.6V25c0,0.8,0.3,1.1,0.7,1.1
		s0.7-0.4,0.7-1.1v-5.5h1.6v5.1c0,1.6-0.6,2.5-1.4,2.8h3.3c-0.4-0.1-0.7-0.4-1.1-0.7l0.7-1.3c0.4,0.4,0.9,0.7,1.4,0.7
		c0.4,0,0.8-0.3,0.8-0.8c0-1.3-2.5-1.4-2.5-3.8c0-1.2,0.8-2.2,2.3-2.2c0.8,0,1.3,0.2,1.9,0.7L26,21.3c-0.4-0.4-0.7-0.5-1.1-0.5
		c-0.4,0-0.7,0.3-0.7,0.7c0,1.2,2.5,1.4,2.5,3.8c0,1-0.5,1.8-1.3,2.1h1.2h1.8V21h-1.1v-1.5h3.9V21h-1.1v6.4h0.9h1.9V3.8
		C32.7,2.4,31.6,1.3,30.3,1.3z"/>
</g>
</svg>
